<?xml version="1.0" encoding="UTF-8" standalone="no"?>
<!-- Created with Inkscape (http://www.inkscape.org/) -->

<svg
   width="64"
   height="64"
   viewBox="0 0 16.933333 16.933333"
   version="1.1"
   id="svg680"
   inkscape:version="1.2.1 (9c6d41e410, 2022-07-14, custom)"
   sodipodi:docname="tray.svg"
   xmlns:inkscape="http://www.inkscape.org/namespaces/inkscape"
   xmlns:sodipodi="http://sodipodi.sourceforge.net/DTD/sodipodi-0.dtd"
   xmlns="http://www.w3.org/2000/svg"
   xmlns:svg="http://www.w3.org/2000/svg">
  <sodipodi:namedview
     id="namedview682"
     pagecolor="#505050"
     bordercolor="#eeeeee"
     borderopacity="1"
     inkscape:showpageshadow="0"
     inkscape:pageopacity="0"
     inkscape:pagecheckerboard="0"
     inkscape:deskcolor="#505050"
     inkscape:document-units="px"
     showgrid="false"
     inkscape:zoom="7.8665629"
     inkscape:cx="42.331067"
     inkscape:cy="32.924163"
     inkscape:window-width="1918"
     inkscape:window-height="1018"
     inkscape:window-x="1920"
     inkscape:window-y="30"
     inkscape:window-maximized="1"
     inkscape:current-layer="layer1" />
  <defs
     id="defs677" />
  <g
     inkscape:label="Layer 1"
     inkscape:groupmode="layer"
     id="layer1">
    <path
       id="path1283"
       style="color:#000000;fill:#b1b8b9;fill-opacity:1;stroke-width:1.41808;stroke-linecap:round;stroke-linejoin:round;-inkscape-stroke:none"
       d="M 8.3534755,3.5633598 A 1.8759961,1.8759961 0 0 0 7.1399416,4.1093055 L 1.0773904,10.171856 a 1.8759961,1.8759961 0 0 0 0,2.650572 1.8759961,1.8759961 0 0 0 1.3454436,0.546683 1.8759984,1.8759984 0 0 0 0.06665,0.0043 h 11.954365 a 1.8759984,1.8759984 0 0 0 0.06665,-0.0043 1.8759961,1.8759961 0 0 0 1.345444,-0.546683 1.8759961,1.8759961 0 0 0 0,-2.650572 L 9.7933915,4.1093055 A 1.8759961,1.8759961 0 0 0 8.3534185,3.5633598 Z"
       inkscape:label="systray" />
  </g>
</svg>
