<?xml version="1.0" encoding="UTF-8" standalone="no"?>
<svg
   height="21"
   viewBox="0 0 21 21"
   width="21"
   version="1.1"
   id="svg1231"
   sodipodi:docname="globe.svg"
   inkscape:version="1.2 (dc2aedaf03, 2022-05-15)"
   xmlns:inkscape="http://www.inkscape.org/namespaces/inkscape"
   xmlns:sodipodi="http://sodipodi.sourceforge.net/DTD/sodipodi-0.dtd"
   xmlns="http://www.w3.org/2000/svg"
   xmlns:svg="http://www.w3.org/2000/svg">
  <defs
     id="defs1235" />
  <sodipodi:namedview
     id="namedview1233"
     pagecolor="#ffffff"
     bordercolor="#000000"
     borderopacity="0.25"
     inkscape:showpageshadow="2"
     inkscape:pageopacity="0.0"
     inkscape:pagecheckerboard="0"
     inkscape:deskcolor="#d1d1d1"
     showgrid="false"
     inkscape:zoom="38.666667"
     inkscape:cx="6.2456896"
     inkscape:cy="10.5"
     inkscape:window-width="1918"
     inkscape:window-height="1018"
     inkscape:window-x="1920"
     inkscape:window-y="30"
     inkscape:window-maximized="1"
     inkscape:current-layer="svg1231" />
  <g
     fill="none"
     fill-rule="evenodd"
     stroke="currentColor"
     stroke-linecap="round"
     stroke-linejoin="round"
     transform="matrix(0.77687162,0,0,0.76406675,4.285027,4.387466)"
     id="g1229"
     style="stroke:#f5f5f5;stroke-width:2;stroke-dasharray:none;stroke-opacity:1">
    <path
       d="m 8,16 c 4.438003,0 8,-3.526283 8,-7.9642857 C 16,3.5977118 12.438003,0 8,0 3.5619976,0 0,3.5977118 0,8.0357143 0,12.473717 3.5619976,16 8,16 Z"
       id="path1221"
       style="stroke:#f5f5f5;stroke-width:2;stroke-dasharray:none;stroke-opacity:1" />
    <path
       d="M 1,5 H 15"
       id="path1223"
       style="stroke:#f5f5f5;stroke-width:2;stroke-dasharray:none;stroke-opacity:1" />
    <path
       d="M 1,11 H 15"
       id="path1225"
       style="stroke:#f5f5f5;stroke-width:2;stroke-dasharray:none;stroke-opacity:1" />
    <path
       d="m 8,16 c 2.219001,0 4,-3.526283 4,-7.9642857 C 12,3.5977118 10.219001,0 8,0 5.7809988,0 4,3.5977118 4,8.0357143 4,12.473717 5.7809988,16 8,16 Z"
       id="path1227"
       style="stroke:#f5f5f5;stroke-width:2;stroke-dasharray:none;stroke-opacity:1" />
  </g>
</svg>
