<?xml version="1.0" encoding="UTF-8" standalone="no"?>
<!-- Generator: Adobe Illustrator 23.0.0, SVG Export Plug-In . SVG Version: 6.00 Build 0)  -->

<svg
   version="1.1"
   id="Layer_1"
   x="0px"
   y="0px"
   viewBox="0 0 127 127"
   style="enable-background:new 0 0 127 127;"
   xml:space="preserve"
   sodipodi:docname="dd-ff.svg"
   inkscape:version="1.2.1 (9c6d41e410, 2022-07-14, custom)"
   xmlns:inkscape="http://www.inkscape.org/namespaces/inkscape"
   xmlns:sodipodi="http://sodipodi.sourceforge.net/DTD/sodipodi-0.dtd"
   xmlns="http://www.w3.org/2000/svg"
   xmlns:svg="http://www.w3.org/2000/svg"><defs
   id="defs46"><linearGradient
   id="a"
   x1="471.79999"
   y1="127.352"
   x2="55.983002"
   y2="389.284"
   gradientUnits="userSpaceOnUse"
   gradientTransform="translate(-191.35627,-184.64335)"><stop
     offset="0"
     stop-color="#3fe1b0"
     id="stop391" /><stop
     offset=".406"
     stop-color="#00b3f4"
     id="stop393" /><stop
     offset=".421"
     stop-color="#03b0f4"
     id="stop395" /><stop
     offset=".818"
     stop-color="#5561e9"
     id="stop397" /><stop
     offset="1"
     stop-color="#7542e5"
     id="stop399" /></linearGradient><radialGradient
   id="e"
   cx="-9265.6484"
   cy="-9760.9844"
   r="38.471001"
   gradientTransform="matrix(6.201,0,0,6.2,57393.112,60715.797)"
   gradientUnits="userSpaceOnUse"><stop
     offset=".287"
     stop-color="#0060df"
     id="stop314" /><stop
     offset=".417"
     stop-color="#2357e1"
     id="stop316" /><stop
     offset=".604"
     stop-color="#4f4ce3"
     id="stop318" /><stop
     offset=".748"
     stop-color="#6b45e4"
     id="stop320" /><stop
     offset=".833"
     stop-color="#7542e5"
     id="stop322" /></radialGradient>
			
			
			
			
		</defs><sodipodi:namedview
   id="namedview44"
   pagecolor="#505050"
   bordercolor="#eeeeee"
   borderopacity="1"
   inkscape:showpageshadow="0"
   inkscape:pageopacity="0"
   inkscape:pagecheckerboard="0"
   inkscape:deskcolor="#505050"
   showgrid="false"
   inkscape:zoom="5.6568543"
   inkscape:cx="13.435029"
   inkscape:cy="68.766134"
   inkscape:window-width="1918"
   inkscape:window-height="1018"
   inkscape:window-x="1920"
   inkscape:window-y="30"
   inkscape:window-maximized="1"
   inkscape:current-layer="g33" />
<style
   type="text/css"
   id="style2">
	.st0{fill:#DE5833;}
	.st1{fill:#FFFFFF;}
	.st2{fill-rule:evenodd;clip-rule:evenodd;fill:#FED30A;}
	.st3{fill:#2D4F8D;}
	.st4{fill:#D5D7D8;}
	.st5{fill:#67BD47;}
	.st6{fill:#43A347;}
	.st7{fill:#4C4C4C;}
</style>
<g
   id="g41">
	<g
   id="g33"
   transform="matrix(1.3307947,0,0,1.3307947,-28.166315,-30.566612)">
		<circle
   class="st0"
   cx="63.299999"
   cy="63.299999"
   r="60"
   id="circle4"
   style="display:none;fill:#de5833;fill-opacity:1" />
		<path
   id="path6"
   style="display:inline;fill:#b1b8b9;fill-opacity:1;stroke:none"
   class="st1"
   d="m 44.345703,22.978516 c -0.654619,-0.0145 -1.324734,-0.01329 -2.009765,0.0059 -1.565789,0.04377 -3.210567,0.178518 -4.935547,0.416016 0,0 2.300423,0.700011 4.90039,2 0,0 -5.001172,0.699642 -5.201172,4.099609 0,0 9.900066,-0.499197 15.5,1.300781 -12.899857,1.699989 -19.600379,8.398971 -18.40039,20.798828 1.699978,17.499813 9.101194,48.69972 11.701172,59.59961 l 0.982421,4.13672 -0.002,-0.002 0.160157,0.67969 c 5.224963,1.60365 10.658508,2.38672 16.259765,2.38672 4.856075,0 9.584679,-0.63815 14.16211,-1.8418 l -0.404297,-0.69726 -1.757813,-3.06055 C 72.100814,107.40089 63.699219,92.299488 63.699219,81.099609 63.699219,55.299895 81,77.400561 81,56.800781 81,51.900836 78.599444,34.699576 63.599609,31.099609 60.564489,27.080124 54.164998,23.195954 44.345703,22.978516 Z M 72.0625,41.287109 c 1.56248,-0.0375 3.23751,0.76252 4.4375,2.3125 C 73.40003,41.799629 70.600761,42.20002 68.300781,44 c 0.75,-1.79998 2.199239,-2.675391 3.761719,-2.712891 z m -26.582031,1.169922 c 1.434353,-0.0041 2.981261,0.492189 4.21875,1.242188 -4.599956,-0.5 -6.800022,0.201606 -8.5,4.101562 -0.1875,-3.937456 1.890647,-5.336914 4.28125,-5.34375 z M 74.5,49.5 c 1.799982,0 3.300781,1.500799 3.300781,3.300781 0,1.799982 -1.500799,3.298828 -3.300781,3.298828 -1.799982,0 -3.300781,-1.498846 -3.300781,-3.298828 C 71.199219,51.000799 72.700018,49.5 74.5,49.5 Z m 1.199219,1 c -0.6,0 -1,0.5 -1,1 0,0.599991 0.5,1 1,1 0.499991,0 0.9,-0.400009 1,-1 0,-0.599991 -0.400009,-1 -1,-1 z m -26.798828,0.800781 c 2.099984,0 3.798828,1.698844 3.798828,3.798828 0,2.099984 -1.698844,3.800782 -3.798828,3.800782 -2.099984,0 -3.800782,-1.700798 -3.800782,-3.800782 0,-2.099984 1.700798,-3.798828 3.800782,-3.798828 z m 1.40039,1.298828 c -0.599992,0 -1.101562,0.49961 -1.101562,1.09961 0,0.599992 0.50157,1.101562 1.101562,1.101562 0.6,0 1.09961,-0.50157 1.09961,-1.101562 0,-0.6 -0.49961,-1.09961 -1.09961,-1.09961 z m 44.91211,50.318361 c -0.06881,0.0556 -0.137927,0.11077 -0.207032,0.16601 l 0.158203,-0.0801 z" />
		<path
   id="Beak_2_"
   class="st2"
   d="m 60.5,71.6 c 0,-6.6 9,-8.7 12.4,-8.7 9.2,0 22.2,-5.9 25.4,-5.8 3.3,0.1 5.4,1.4 5.4,2.9 0,2.2 -18.4,10.5 -25.5,9.8 -6.8,-0.6 -8.4,0.1 -8.4,2.9 0,2.4 4.9,4.6 10.3,4.6 8.1,0 16,-3.6 18.4,-1.9 2.1,1.5 -5.5,6.9 -14.2,6.9 -8.7,0 -23.8,-4.1 -23.8,-10.7 z"
   style="fill:#b1b8b9;fill-opacity:1" />
		
		
		<g
   id="g31">
			<path
   class="st5"
   d="m 83.4,91.9 c -1.7,-0.4 -8.3,4.3 -10.8,6.1 -0.1,-0.5 -0.2,-0.9 -0.3,-1.1 -0.3,-1 -6.7,-0.4 -8.2,1.2 -4,-1.9 -12,-5.6 -12.1,-3.3 -0.3,3 0,15.5 1.6,16.4 1.2,0.7 8,-3 11.4,-4.9 0,0 0,0 0.1,0 2.1,0.5 6,0 7.4,-0.9 0.2,-0.1 0.3,-0.3 0.4,-0.5 3.1,1.2 9.8,3.6 11.2,3.1 1.8,-0.5 1.4,-15.6 -0.7,-16.1 z"
   id="path27"
   style="fill:#596464;fill-opacity:1" />
			<path
   class="st6"
   d="m 65.1,106.22487 c -2.1,-0.4 -1.4,-2.5 -1.4,-7.400001 0,0 0,0 0,0 -0.5,0.3 -0.9,0.7 -0.9,1.1 0,4.900001 -0.8,7.100001 1.4,7.400001 2.1,0.5 6,0 7.6,-0.9 0.3,-0.2 0.4,-0.5 0.5,-1 -1.5,0.9 -5.2,1.3 -7.2,0.8 z"
   id="path29"
   style="fill:#596464;fill-opacity:1" />
		</g>
	</g>
	
</g>
</svg>
