<?xml version="1.0" encoding="UTF-8" standalone="no"?>
<!-- Created with Inkscape (http://www.inkscape.org/) -->

<svg
   width="32"
   height="32"
   viewBox="0 0 8.4666665 8.4666666"
   version="1.1"
   id="svg1908"
   inkscape:version="1.2.1 (9c6d41e410, 2022-07-14)"
   sodipodi:docname="folder-music.svg"
   xmlns:inkscape="http://www.inkscape.org/namespaces/inkscape"
   xmlns:sodipodi="http://sodipodi.sourceforge.net/DTD/sodipodi-0.dtd"
   xmlns:xlink="http://www.w3.org/1999/xlink"
   xmlns="http://www.w3.org/2000/svg"
   xmlns:svg="http://www.w3.org/2000/svg">
  <sodipodi:namedview
     id="namedview1910"
     pagecolor="#ffffff"
     bordercolor="#000000"
     borderopacity="0.25"
     inkscape:showpageshadow="2"
     inkscape:pageopacity="0.0"
     inkscape:pagecheckerboard="0"
     inkscape:deskcolor="#d1d1d1"
     inkscape:document-units="mm"
     showgrid="false"
     inkscape:zoom="7.375"
     inkscape:cx="12.813559"
     inkscape:cy="16"
     inkscape:window-width="1920"
     inkscape:window-height="986"
     inkscape:window-x="-11"
     inkscape:window-y="-11"
     inkscape:window-maximized="1"
     inkscape:current-layer="layer1" />
  <defs
     id="defs1905">
    <linearGradient
       inkscape:collect="always"
       xlink:href="#linearGradient12430"
       id="linearGradient4528"
       gradientUnits="userSpaceOnUse"
       x1="28.30344"
       y1="12.347567"
       x2="28.30344"
       y2="3.8788331" />
    <linearGradient
       inkscape:collect="always"
       id="linearGradient12430">
      <stop
         style="stop-color:#0d3f3f;stop-opacity:1;"
         offset="0.25"
         id="stop12428" />
      <stop
         style="stop-color:#388c8c;stop-opacity:1;"
         offset="0.85000002"
         id="stop12426" />
    </linearGradient>
  </defs>
  <g
     inkscape:label="Layer 1"
     inkscape:groupmode="layer"
     id="layer1">
    <g
       id="g4524"
       inkscape:label="folder-music"
       transform="matrix(0.70621802,0,0,0.70621802,-15.755153,-1.4963546)">
      <path
         id="path4520"
         style="fill:url(#linearGradient4528);fill-opacity:1;fill-rule:nonzero;stroke-width:0.022225;stroke-dasharray:none;stroke-opacity:0.5"
         d="m 24.95765,3.878833 c -0.637014,0 -1.149801,0.5900216 -1.149801,1.3229167 v 5.1128663 0.710034 c 0,0.732895 0.595385,1.322917 1.335319,1.322917 h 6.320545 c 0.739934,0 1.335835,-0.590022 1.335835,-1.322917 V 6.9907878 c 0,-0.7328951 -0.595901,-1.3229167 -1.335835,-1.3229167 h -2.71508 A 0.4453384,0.4453384 0 0 1 28.303699,5.2224203 v -0.020671 c 0,-0.7328951 -0.512787,-1.3229167 -1.149801,-1.3229167 z" />
      <rect
         style="fill:#60bfbf;fill-opacity:1;stroke-width:0.0199335;stroke-opacity:0.5"
         id="rect4522"
         width="8.9917278"
         height="5.4104381"
         x="23.807577"
         y="6.937129"
         rx="1.3229166"
         ry="1.3229166" />
      <path
         id="path5854"
         style="color:#000000;fill:#388c8c;stroke-width:0.238122;stroke-linecap:round;stroke-linejoin:round;-inkscape-stroke:none"
         d="m 67.952124,7.402771 c -0.146676,0 -0.268818,0.1224384 -0.268818,0.268818 v 1.0599244 a 0.43671073,0.43671073 0 0 0 -0.317187,0.4195049 0.43671073,0.43671073 0 0 0 0.436713,0.436713 0.43671073,0.43671073 0 0 0 0.436714,-0.436713 0.43671073,0.43671073 0 0 0 -4.66e-4,-0.018603 c -5.6e-5,-0.0019 0,-0.00312 0,-0.00326 v -4.61e-4 -1.0915499 l 0.715298,0.1902189 v 0.8194764 a 0.43671073,0.43671073 0 0 0 -0.317652,0.4050874 0.43671073,0.43671073 0 0 0 -4.65e-4,0.014883 0.43671073,0.43671073 0 0 0 0,9.301e-4 v 4.651e-4 c 9e-6,0.00877 4e-4,0.017402 9.3e-4,0.026045 a 0.43671073,0.43671073 0 0 0 0.0014,0.016278 c 2.32e-4,0.00232 1.97e-4,0.00467 4.65e-4,0.00698 a 0.43671073,0.43671073 0 0 0 0.0019,0.014418 c 1.17e-4,7.734e-4 3.44e-4,0.00155 4.65e-4,0.00233 a 0.43671073,0.43671073 0 0 0 4.65e-4,0.00186 c 0.0013,0.00832 0.0028,0.016492 0.0047,0.024649 a 0.43671073,0.43671073 0 0 0 0.0028,0.012557 c 5.15e-4,0.00203 0.0013,0.00402 0.0019,0.00605 a 0.43671073,0.43671073 0 0 0 0.0051,0.018138 0.43671073,0.43671073 0 0 0 0.006,0.017208 c 5.04e-4,0.00139 8.79e-4,0.00281 0.0014,0.00419 a 0.43671073,0.43671073 0 0 0 0.0056,0.013953 c 0.0013,0.00314 0.0028,0.00619 0.0042,0.0093 a 0.43671073,0.43671073 0 0 0 0.05023,0.086505 0.43671073,0.43671073 0 0 0 0.04139,0.047439 0.43671073,0.43671073 0 0 0 0.101388,0.075343 0.43671073,0.43671073 0 0 0 0.03395,0.016278 c 0.0025,0.00108 0.0049,0.00222 0.0074,0.00326 a 0.43671073,0.43671073 0 0 0 0.0093,0.00372 c 0.0066,0.00256 0.01325,0.0052 0.02,0.00744 a 0.43671073,0.43671073 0 0 0 0.007,0.00233 c 1.39e-4,4.32e-5 3.26e-4,-4.32e-5 4.65e-4,0 a 0.43671073,0.43671073 0 0 0 0.01535,0.00419 c 0.0022,5.957e-4 0.0043,0.0013 0.0065,0.00186 a 0.43671073,0.43671073 0 0 0 0.01395,0.00326 c 0.009,0.00199 0.01821,0.0037 0.02744,0.00512 0.01088,0.00167 0.02191,0.00288 0.03302,0.00372 0.01095,8.298e-4 0.02187,0.0014 0.03302,0.0014 0.01065,-1.08e-5 0.02116,-6.246e-4 0.03163,-0.0014 0.01093,-8.055e-4 0.02186,-0.00212 0.03256,-0.00372 0.01083,-0.00162 0.02153,-0.00363 0.03209,-0.00605 0.0215,-0.00491 0.04214,-0.011556 0.06232,-0.019534 0.0099,-0.00391 0.01976,-0.00795 0.0293,-0.012557 a 0.43671073,0.43671073 0 0 0 4.65e-4,-4.652e-4 c 0.0091,-0.00443 0.01819,-0.00891 0.02697,-0.013952 5.88e-4,-3.373e-4 0.0013,-5.902e-4 0.0019,-9.302e-4 a 0.43671073,0.43671073 0 0 0 0.0079,-0.00465 c 0.0068,-0.00416 0.01341,-0.00851 0.02,-0.013022 a 0.43671073,0.43671073 0 0 0 0.01442,-0.010232 c 0.0038,-0.00287 0.0079,-0.00584 0.01163,-0.00884 a 0.43671073,0.43671073 0 0 0 0.0051,-0.00419 c 0.0067,-0.00555 0.01313,-0.011268 0.01953,-0.017208 a 0.43671073,0.43671073 0 0 0 0.01116,-0.010697 c 0.0041,-0.00407 0.0082,-0.00833 0.01209,-0.012557 a 0.43671073,0.43671073 0 0 0 0.0023,-0.00279 c 0.002,-0.00217 0.0041,-0.00431 0.006,-0.00651 a 0.43671073,0.43671073 0 0 0 0.0079,-0.0093 c 0.0017,-0.00204 0.0035,-0.00398 0.0051,-0.00605 a 0.43671073,0.43671073 0 0 0 0.0023,-0.00326 c 0.01225,-0.015596 0.02341,-0.03165 0.03349,-0.048834 3.49e-4,-5.951e-4 5.84e-4,-0.00126 9.31e-4,-0.00186 a 0.43671073,0.43671073 0 0 0 9.3e-4,-0.00186 c 0.0048,-0.00842 0.0097,-0.016821 0.01395,-0.025579 2.11e-4,-4.311e-4 2.57e-4,-9.635e-4 4.65e-4,-0.0014 0.0047,-0.00979 0.009,-0.020058 0.01302,-0.03023 0.01913,-0.048577 0.02999,-0.101175 0.03023,-0.1562679 v -0.00186 a 0.43671073,0.43671073 0 0 0 0,-0.0014 c 5.4e-5,-0.00368 3.3e-5,-0.00685 0,-0.010697 v -0.00744 c -3e-5,-0.00235 0,-0.00742 0,-0.00698 V 8.0231919 c 0,-0.049337 -0.01227,-0.094686 -0.03349,-0.1353393 -9e-4,-0.00223 -9.45e-4,-0.00422 -0.0014,-0.00512 l -0.0019,-0.00186 c -5.12e-4,-9.131e-4 -0.0012,-0.00205 -0.0019,-0.00326 -0.0026,-0.00502 -0.0027,-0.00531 -0.0019,-0.00372 C 69.43566,7.8145456 69.378,7.7667287 69.305835,7.74739 L 68.059558,7.4134679 c -0.02354,-0.00634 -0.04765,-0.00952 -0.07209,-0.0093 -0.0029,-4.473e-4 -0.0081,-0.0014 -0.01581,-0.0014 z"
         transform="matrix(1.4159933,0,0,1.4159933,-68.604184,-2.6108045)" />
    </g>
  </g>
</svg>
