<?xml version="1.0" encoding="UTF-8" standalone="no"?>
<!-- Created with Inkscape (http://www.inkscape.org/) -->

<svg
   width="64"
   height="64"
   viewBox="0 0 16.933333 16.933333"
   version="1.1"
   id="svg2306"
   inkscape:version="1.2.1 (9c6d41e410, 2022-07-14, custom)"
   sodipodi:docname="floating-icon.svg"
   xmlns:inkscape="http://www.inkscape.org/namespaces/inkscape"
   xmlns:sodipodi="http://sodipodi.sourceforge.net/DTD/sodipodi-0.dtd"
   xmlns="http://www.w3.org/2000/svg"
   xmlns:svg="http://www.w3.org/2000/svg">
  <sodipodi:namedview
     id="namedview2308"
     pagecolor="#505050"
     bordercolor="#eeeeee"
     borderopacity="1"
     inkscape:showpageshadow="0"
     inkscape:pageopacity="0"
     inkscape:pagecheckerboard="0"
     inkscape:deskcolor="#505050"
     inkscape:document-units="mm"
     showgrid="false"
     inkscape:zoom="8.9701773"
     inkscape:cx="39.018181"
     inkscape:cy="34.949142"
     inkscape:window-width="1914"
     inkscape:window-height="1045"
     inkscape:window-x="1920"
     inkscape:window-y="29"
     inkscape:window-maximized="1"
     inkscape:current-layer="layer1" />
  <defs
     id="defs2303" />
  <g
     inkscape:label="Layer 1"
     inkscape:groupmode="layer"
     id="layer1">
    <g
       id="g2000"
       transform="matrix(0.82378574,0,0,0.82378574,-95.945989,-65.319385)">
      <path
         style="fill:#c7d1d1;fill-opacity:1;stroke-width:0.264583"
         d="m 121.53913,85.381869 c -1.385,0 -2.5001,1.115108 -2.5001,2.500106 v 6.678662 c 0,1.384998 1.1151,2.500106 2.5001,2.500106 h 8.02794 c 1.38499,0 2.5001,-1.115108 2.5001,-2.500106 v -6.678662 c 0,-1.384998 -1.11511,-2.500106 -2.5001,-2.500106 z"
         id="path398" />
      <path
         style="fill:#6a7c7c;fill-opacity:1;stroke-width:0.264583"
         d="m 123.92813,82.078195 c -1.37978,0 -2.49123,1.106343 -2.49959,2.484086 h 8.70232 c 1.57947,0 2.85098,1.271514 2.85098,2.850989 v 6.124174 c 0.87031,-0.390271 1.47382,-1.262206 1.47382,-2.280998 v -6.678662 c 0,-1.384996 -1.1146,-2.499589 -2.49959,-2.499589 z"
         id="path400" />
    </g>
  </g>
</svg>
