<?xml version="1.0" encoding="UTF-8" standalone="no"?>
<!-- Created with Inkscape (http://www.inkscape.org/) -->

<svg
   width="64"
   height="64"
   viewBox="0 0 16.933333 16.933333"
   version="1.1"
   id="svg2499"
   inkscape:version="1.2.1 (9c6d41e410, 2022-07-14, custom)"
   sodipodi:docname="spiral-icon.svg"
   xmlns:inkscape="http://www.inkscape.org/namespaces/inkscape"
   xmlns:sodipodi="http://sodipodi.sourceforge.net/DTD/sodipodi-0.dtd"
   xmlns="http://www.w3.org/2000/svg"
   xmlns:svg="http://www.w3.org/2000/svg">
  <sodipodi:namedview
     id="namedview2501"
     pagecolor="#505050"
     bordercolor="#eeeeee"
     borderopacity="1"
     inkscape:showpageshadow="0"
     inkscape:pageopacity="0"
     inkscape:pagecheckerboard="0"
     inkscape:deskcolor="#505050"
     inkscape:document-units="mm"
     showgrid="false"
     inkscape:zoom="12.890625"
     inkscape:cx="31.961212"
     inkscape:cy="32"
     inkscape:window-width="1914"
     inkscape:window-height="1045"
     inkscape:window-x="1920"
     inkscape:window-y="29"
     inkscape:window-maximized="1"
     inkscape:current-layer="g2007" />
  <defs
     id="defs2496" />
  <g
     inkscape:label="Layer 1"
     inkscape:groupmode="layer"
     id="layer1">
    <g
       id="g2007"
       transform="matrix(0.83452446,0,0,0.83452446,-80.482852,-66.379571)">
      <path
         style="fill:#6a7c7c;fill-opacity:1;stroke-width:0.264583"
         d="m 112.55363,90.216199 c -0.90434,0 -1.63246,1.115108 -1.63246,2.500106 v 2.080493 c 0,1.384998 0.72812,2.499589 1.63246,2.499589 0.90435,0 1.63246,-1.114591 1.63246,-2.499589 v -2.080493 c 0,-1.384998 -0.72811,-2.500106 -1.63246,-2.500106 z"
         id="path404"
         inkscape:label="path404" />
      <path
         style="fill:#6a7c7c;fill-opacity:1;stroke-width:0.264583"
         d="m 108.73836,94.03147 c -0.9044,0 -1.63246,0.728056 -1.63246,1.632459 0,0.904403 0.72806,1.632458 1.63246,1.632458 0.90441,0 1.63246,-0.728055 1.63246,-1.632458 0,-0.904403 -0.72805,-1.632459 -1.63246,-1.632459 z"
         id="path402" />
      <path
         style="fill:#6a7c7c;fill-opacity:1;stroke-width:0.264583"
         d="m 108.73836,90.216199 c -0.9044,0 -1.63246,0.728571 -1.63246,1.632976 0,0.904403 0.72806,1.632458 1.63246,1.632458 0.90441,0 1.63246,-0.728055 1.63246,-1.632458 0,-0.904405 -0.72805,-1.632976 -1.63246,-1.632976 z"
         id="path406" />
      <path
         style="fill:#6a7c7c;fill-opacity:1;stroke-width:0.264583"
         d="m 109.81685,82.078195 c -1.50178,0 -2.71095,1.208646 -2.71095,2.710429 v 1.658813 c 0,1.501783 1.20917,2.710429 2.71095,2.710429 h 1.6583 c 1.50178,0 2.71094,-1.208646 2.71094,-2.710429 v -1.658813 c 0,-1.501783 -1.20916,-2.710429 -2.71094,-2.710429 z"
         id="path408" />
      <path
         style="fill:#c7d1d1;fill-opacity:1;stroke-width:0.264583"
         d="m 101.48816,82.078195 c -1.385,0 -2.500106,1.114591 -2.500106,2.499589 v 10.219014 c 0,1.384998 1.115106,2.499589 2.500106,2.499589 h 2.07998 c 1.38499,0 2.5001,-1.114591 2.5001,-2.499589 V 84.577784 c 0,-1.384998 -1.11511,-2.499589 -2.5001,-2.499589 z"
         id="path410" />
    </g>
  </g>
</svg>
