<?xml version="1.0" encoding="UTF-8" standalone="no"?>
<!-- Created with Inkscape (http://www.inkscape.org/) -->

<svg
   width="64"
   height="64"
   viewBox="0 0 16.933333 16.933333"
   version="1.1"
   id="svg2695"
   inkscape:version="1.2.1 (9c6d41e410, 2022-07-14, custom)"
   sodipodi:docname="tile-icon.svg"
   xmlns:inkscape="http://www.inkscape.org/namespaces/inkscape"
   xmlns:sodipodi="http://sodipodi.sourceforge.net/DTD/sodipodi-0.dtd"
   xmlns="http://www.w3.org/2000/svg"
   xmlns:svg="http://www.w3.org/2000/svg">
  <sodipodi:namedview
     id="namedview2697"
     pagecolor="#505050"
     bordercolor="#eeeeee"
     borderopacity="1"
     inkscape:showpageshadow="0"
     inkscape:pageopacity="0"
     inkscape:pagecheckerboard="0"
     inkscape:deskcolor="#505050"
     inkscape:document-units="mm"
     showgrid="false"
     inkscape:zoom="6.3428732"
     inkscape:cx="30.112536"
     inkscape:cy="36.497655"
     inkscape:window-width="1914"
     inkscape:window-height="1045"
     inkscape:window-x="1920"
     inkscape:window-y="29"
     inkscape:window-maximized="1"
     inkscape:current-layer="layer1" />
  <defs
     id="defs2692" />
  <g
     inkscape:label="Layer 1"
     inkscape:groupmode="layer"
     id="layer1">
    <g
       id="g2013"
       transform="matrix(0.8345243,0,0,0.8345243,-63.567393,-66.379557)">
      <path
         style="fill:#c7d1d1;fill-opacity:1;stroke-width:0.264583"
         d="m 89.547286,90.216199 c -1.501781,0 -2.710945,1.209163 -2.710945,2.710946 v 1.658813 c 0,1.501783 1.209164,2.710429 2.710945,2.710429 h 1.658297 c 1.501781,0 2.710946,-1.208646 2.710946,-2.710429 v -1.658813 c 0,-1.501783 -1.209165,-2.710946 -2.710946,-2.710946 z"
         id="path390" />
      <path
         style="fill:#6a7c7c;fill-opacity:1;stroke-width:0.264583"
         d="m 81.429435,90.216199 c -1.501782,0 -2.710945,1.209163 -2.710945,2.710946 v 1.658813 c 0,1.501783 1.209163,2.710429 2.710945,2.710429 h 1.658297 c 1.501783,0 2.710946,-1.208646 2.710946,-2.710429 v -1.658813 c 0,-1.501783 -1.209163,-2.710946 -2.710946,-2.710946 z"
         id="path392" />
      <path
         style="fill:#6a7c7c;fill-opacity:1;stroke-width:0.264583"
         d="m 89.547286,82.078195 c -1.501781,0 -2.710945,1.208646 -2.710945,2.710429 v 1.658813 c 0,1.501783 1.209164,2.710429 2.710945,2.710429 h 1.658297 c 1.501781,0 2.710946,-1.208646 2.710946,-2.710429 v -1.658813 c 0,-1.501783 -1.209165,-2.710429 -2.710946,-2.710429 z"
         id="path394" />
      <path
         style="fill:#6a7c7c;fill-opacity:1;stroke-width:0.264583"
         d="m 81.429435,82.078195 c -1.501782,0 -2.710945,1.208646 -2.710945,2.710429 v 1.658813 c 0,1.501783 1.209163,2.710429 2.710945,2.710429 h 1.658297 c 1.501783,0 2.710946,-1.208646 2.710946,-2.710429 v -1.658813 c 0,-1.501783 -1.209163,-2.710429 -2.710946,-2.710429 z"
         id="path396" />
    </g>
  </g>
</svg>
