<?xml version="1.0" encoding="UTF-8" standalone="no"?>
<!-- Created with Inkscape (http://www.inkscape.org/) -->

<svg
   width="40"
   height="40"
   viewBox="0 0 10.583333 10.583333"
   version="1.1"
   id="svg380"
   inkscape:version="1.2.1 (9c6d41e410, 2022-07-14, custom)"
   sodipodi:docname="file-shell.svg"
   xmlns:inkscape="http://www.inkscape.org/namespaces/inkscape"
   xmlns:sodipodi="http://sodipodi.sourceforge.net/DTD/sodipodi-0.dtd"
   xmlns="http://www.w3.org/2000/svg"
   xmlns:svg="http://www.w3.org/2000/svg">
  <sodipodi:namedview
     id="namedview382"
     pagecolor="#505050"
     bordercolor="#eeeeee"
     borderopacity="1"
     inkscape:showpageshadow="0"
     inkscape:pageopacity="0"
     inkscape:pagecheckerboard="0"
     inkscape:deskcolor="#505050"
     inkscape:document-units="mm"
     showgrid="false"
     inkscape:zoom="6.3428732"
     inkscape:cx="24.831018"
     inkscape:cy="19.785986"
     inkscape:window-width="1914"
     inkscape:window-height="1045"
     inkscape:window-x="1920"
     inkscape:window-y="29"
     inkscape:window-maximized="1"
     inkscape:current-layer="layer1" />
  <defs
     id="defs377">
    <filter
       inkscape:collect="always"
       style="color-interpolation-filters:sRGB"
       id="filter1019-3-3"
       x="-0.19201652"
       y="-0.19198347"
       width="1.384033"
       height="1.3839669">
      <feGaussianBlur
         inkscape:collect="always"
         stdDeviation="0.17900691"
         id="feGaussianBlur1021-6-7" />
    </filter>
  </defs>
  <g
     inkscape:label="Layer 1"
     inkscape:groupmode="layer"
     id="layer1">
    <g
       id="g1026-0-5"
       inkscape:label="file-shell"
       transform="translate(-26.770435,-12.567967)">
      <path
         id="rect1037-2-1-6-9"
         style="display:inline;fill:#3b3b3b;fill-opacity:1;stroke:none;stroke-width:0.463867"
         d="m 30.042587,13.402283 c -0.729276,0 -1.316199,0.587566 -1.316199,1.317749 v 6.279203 c 0,0.730182 0.586923,1.317749 1.316199,1.317749 h 4.03903 c 0.729275,0 1.316199,-0.587567 1.316199,-1.317749 v -4.785238 -0.276985 -0.127641 h -0.0021 a 0.26781552,0.26781552 0 0 0 -0.07751,-0.187069 l -2.140955,-2.140954 a 0.26778874,0.26778874 0 0 0 -0.189135,-0.07906 h -0.126091 -0.278536 z" />
      <path
         id="path4718-0-6-3-2-2"
         style="color:#000000;display:inline;fill:#1a1a1a;fill-opacity:1;stroke-width:0.825466;stroke-linecap:round;stroke-linejoin:round;stroke-dasharray:none;filter:url(#filter1019-3-3)"
         d="m 32.944337,13.841244 c -0.123738,4.8e-5 -0.223968,0.100472 -0.223778,0.22421 v 1.731341 c 7.73e-4,0.123058 0.157097,0.28217 0.280158,0.282228 h 1.733411 c 0.199007,-4.52e-4 0.298558,-0.240897 0.158113,-0.381891 l -1.789792,-1.789791 c -0.04185,-0.04213 -0.09873,-0.0659 -0.158112,-0.06609 z"
         sodipodi:nodetypes="ccccccccc" />
      <path
         id="path4718-0-6-61-2"
         style="color:#000000;display:inline;fill:#666666;fill-opacity:1;stroke-width:0.987425;stroke-linecap:round;stroke-linejoin:round;stroke-dasharray:none"
         d="m 32.988144,13.402283 a 0.26778874,0.26778874 0 0 0 -0.267684,0.2682 v 2.142505 a 0.26781552,0.26781552 0 0 0 0.267684,0.266134 h 2.140954 a 0.26781552,0.26781552 0 0 0 0.189136,-0.45682 l -2.140955,-2.140954 a 0.26778874,0.26778874 0 0 0 -0.189135,-0.07906 z" />
      <path
         style="fill:none;fill-opacity:1;stroke:#1a1a1a;stroke-width:0.427038;stroke-linecap:round;stroke-linejoin:round;stroke-dasharray:none;stroke-opacity:1"
         d="m 52.193637,19.059722 h 2.262791"
         id="path1331-7"
         transform="translate(-21.691587)" />
      <path
         style="fill:none;fill-opacity:1;stroke:#1a1a1a;stroke-width:0.427038;stroke-linecap:round;stroke-linejoin:round;stroke-dasharray:none;stroke-opacity:1"
         d="m 52.193637,18.15617 h 2.262791"
         id="path1331-7-2"
         transform="translate(-21.691587)" />
      <path
         style="fill:none;fill-opacity:1;stroke:#1a1a1a;stroke-width:0.427168;stroke-linecap:round;stroke-linejoin:round;stroke-dasharray:none;stroke-opacity:1"
         d="m 52.873415,17.47651 v 2.262792"
         id="path1331-7-9"
         transform="translate(-21.691587)" />
      <path
         style="fill:none;fill-opacity:1;stroke:#1a1a1a;stroke-width:0.427038;stroke-linecap:round;stroke-linejoin:round;stroke-dasharray:none;stroke-opacity:1"
         d="m 53.776702,17.47651 v 2.262792"
         id="path1331-7-2-3"
         transform="translate(-21.691587)" />
      <path
         style="fill:none;fill-opacity:1;stroke:#1a1a1a;stroke-width:0.427038;stroke-linecap:round;stroke-linejoin:round;stroke-dasharray:none;stroke-opacity:1"
         d="m 55.313741,17.47651 v 1.570496"
         id="path1331-7-2-3-1"
         transform="translate(-21.691587)" />
      <ellipse
         style="fill:#1a1a1a;fill-opacity:1;stroke:none;stroke-width:0.427037;stroke-linecap:round;stroke-linejoin:round;stroke-dasharray:none;stroke-opacity:1"
         id="path2487"
         cx="55.31374"
         cy="19.735645"
         rx="0.21351901"
         ry="0.21717574"
         transform="translate(-21.691587)" />
    </g>
  </g>
</svg>
