<?xml version="1.0" encoding="UTF-8" standalone="no"?>
<!-- Created with Inkscape (http://www.inkscape.org/) -->

<svg
   width="40"
   height="40"
   viewBox="0 0 10.583333 10.583333"
   version="1.1"
   id="svg680"
   inkscape:version="1.2.1 (9c6d41e410, 2022-07-14, custom)"
   sodipodi:docname="file-python.svg"
   xmlns:inkscape="http://www.inkscape.org/namespaces/inkscape"
   xmlns:sodipodi="http://sodipodi.sourceforge.net/DTD/sodipodi-0.dtd"
   xmlns="http://www.w3.org/2000/svg"
   xmlns:svg="http://www.w3.org/2000/svg">
  <sodipodi:namedview
     id="namedview682"
     pagecolor="#505050"
     bordercolor="#eeeeee"
     borderopacity="1"
     inkscape:showpageshadow="0"
     inkscape:pageopacity="0"
     inkscape:pagecheckerboard="0"
     inkscape:deskcolor="#505050"
     inkscape:document-units="mm"
     showgrid="false"
     inkscape:zoom="6.3428732"
     inkscape:cx="20.258958"
     inkscape:cy="24.673361"
     inkscape:window-width="1914"
     inkscape:window-height="1045"
     inkscape:window-x="1920"
     inkscape:window-y="29"
     inkscape:window-maximized="1"
     inkscape:current-layer="layer1" />
  <defs
     id="defs677">
    <filter
       inkscape:collect="always"
       style="color-interpolation-filters:sRGB"
       id="filter1019-6-4"
       x="-0.19201652"
       y="-0.19198347"
       width="1.384033"
       height="1.3839669">
      <feGaussianBlur
         inkscape:collect="always"
         stdDeviation="0.17900691"
         id="feGaussianBlur1021-7-7" />
    </filter>
  </defs>
  <g
     inkscape:label="Layer 1"
     inkscape:groupmode="layer"
     id="layer1">
    <g
       id="g1026-5-8"
       inkscape:label="file-python"
       transform="translate(-26.770435,-12.567967)">
      <path
         id="rect1037-2-1-3-4"
         style="display:inline;fill:#265673;fill-opacity:1;stroke:none;stroke-width:0.463867"
         d="m 30.042587,13.402283 c -0.729276,0 -1.316199,0.587566 -1.316199,1.317749 v 6.279203 c 0,0.730182 0.586923,1.317749 1.316199,1.317749 h 4.03903 c 0.729275,0 1.316199,-0.587567 1.316199,-1.317749 v -4.785238 -0.276985 -0.127641 h -0.0021 a 0.26781552,0.26781552 0 0 0 -0.07751,-0.187069 l -2.140955,-2.140954 a 0.26778874,0.26778874 0 0 0 -0.189135,-0.07906 h -0.126091 -0.278536 z" />
      <path
         id="path4718-0-6-3-5-5"
         style="color:#000000;display:inline;fill:#333333;fill-opacity:1;stroke-width:0.825466;stroke-linecap:round;stroke-linejoin:round;stroke-dasharray:none;filter:url(#filter1019-6-4)"
         d="m 32.944337,13.841244 c -0.123738,4.8e-5 -0.223968,0.100472 -0.223778,0.22421 v 1.731341 c 7.73e-4,0.123058 0.157097,0.28217 0.280158,0.282228 h 1.733411 c 0.199007,-4.52e-4 0.298558,-0.240897 0.158113,-0.381891 l -1.789792,-1.789791 c -0.04185,-0.04213 -0.09873,-0.0659 -0.158112,-0.06609 z"
         sodipodi:nodetypes="ccccccccc" />
      <path
         id="path4718-0-6-6-0"
         style="color:#000000;display:inline;fill:#3f8fc0;fill-opacity:1;stroke-width:0.987425;stroke-linecap:round;stroke-linejoin:round;stroke-dasharray:none"
         d="m 32.988144,13.402283 a 0.26778874,0.26778874 0 0 0 -0.267684,0.2682 v 2.142505 a 0.26781552,0.26781552 0 0 0 0.267684,0.266134 h 2.140954 a 0.26781552,0.26781552 0 0 0 0.189136,-0.45682 l -2.140955,-2.140954 a 0.26778874,0.26778874 0 0 0 -0.189135,-0.07906 z" />
      <path
         id="rect7750-9"
         style="fill:#153b51;fill-opacity:1;stroke:none;stroke-width:0.0966937;stroke-linecap:round;stroke-linejoin:round;stroke-dasharray:none;stroke-opacity:1"
         d="m 60.788021,16.921448 c -0.341412,0 -0.6165,0.275088 -0.6165,0.6165 v 0.110587 h 0.803569 v 0.02997 0.102319 h -0.860413 -0.01602 -0.171049 c -0.341411,0 -0.616499,0.274571 -0.616499,0.615983 v 0.392224 c 0,0.341413 0.275088,0.6165 0.616499,0.6165 h 0.144178 v -0.242879 c 0,-0.341412 0.274571,-0.6165 0.615983,-0.6165 h 0.100252 0.130225 0.243912 c 0.341412,0 0.6165,-0.274573 0.6165,-0.615983 v -0.392224 c 0,-0.341413 -0.275088,-0.6165 -0.6165,-0.6165 z m 1.113627,0.888834 v 0.24288 c 0,0.341411 -0.274572,0.6165 -0.615983,0.6165 h -0.100252 -0.130225 -0.243913 c -0.34141,0 -0.616499,0.274571 -0.616499,0.615983 v 0.392224 c 0,0.34141 0.275089,0.6165 0.616499,0.6165 h 0.374138 c 0.341411,0 0.6165,-0.27509 0.6165,-0.6165 v -0.110588 h -0.803569 v -0.02997 -0.10232 h 0.876432 0.171049 c 0.341414,0 0.6165,-0.274571 0.6165,-0.615983 v -0.392224 c 0,-0.34141 -0.275086,-0.6165 -0.6165,-0.6165 z"
         transform="translate(-28.924631)" />
    </g>
  </g>
</svg>
