<?xml version="1.0" encoding="UTF-8" standalone="no"?>
<!-- Created with Inkscape (http://www.inkscape.org/) -->

<svg
   width="32"
   height="32"
   viewBox="0 0 8.4666665 8.4666666"
   version="1.1"
   id="svg1908"
   inkscape:version="1.2.1 (9c6d41e410, 2022-07-14)"
   sodipodi:docname="text-x-python.svg"
   xmlns:inkscape="http://www.inkscape.org/namespaces/inkscape"
   xmlns:sodipodi="http://sodipodi.sourceforge.net/DTD/sodipodi-0.dtd"
   xmlns="http://www.w3.org/2000/svg"
   xmlns:svg="http://www.w3.org/2000/svg">
  <sodipodi:namedview
     id="namedview1910"
     pagecolor="#ffffff"
     bordercolor="#000000"
     borderopacity="0.25"
     inkscape:showpageshadow="2"
     inkscape:pageopacity="0.0"
     inkscape:pagecheckerboard="0"
     inkscape:deskcolor="#d1d1d1"
     inkscape:document-units="mm"
     showgrid="false"
     inkscape:zoom="7.375"
     inkscape:cx="12.813559"
     inkscape:cy="16"
     inkscape:window-width="1920"
     inkscape:window-height="986"
     inkscape:window-x="-11"
     inkscape:window-y="-11"
     inkscape:window-maximized="1"
     inkscape:current-layer="layer1" />
  <defs
     id="defs1905">
    <filter
       inkscape:collect="always"
       style="color-interpolation-filters:sRGB"
       id="filter1019-6-4"
       x="-0.19201652"
       y="-0.19198347"
       width="1.384033"
       height="1.3839669">
      <feGaussianBlur
         inkscape:collect="always"
         stdDeviation="0.17900691"
         id="feGaussianBlur1021-7-7" />
    </filter>
  </defs>
  <g
     inkscape:label="Layer 1"
     inkscape:groupmode="layer"
     id="layer1">
    <g
       id="g1026-5-8"
       inkscape:label="file-python"
       transform="matrix(0.7914586,0,0,0.7914586,-21.142493,-9.9018272)">
      <path
         id="rect1037-2-1-3-4"
         style="display:inline;fill:#265673;fill-opacity:1;stroke:none;stroke-width:0.463867"
         d="m 30.042587,13.402283 c -0.729276,0 -1.316199,0.587566 -1.316199,1.317749 v 6.279203 c 0,0.730182 0.586923,1.317749 1.316199,1.317749 h 4.03903 c 0.729275,0 1.316199,-0.587567 1.316199,-1.317749 v -4.785238 -0.276985 -0.127641 h -0.0021 a 0.26781552,0.26781552 0 0 0 -0.07751,-0.187069 l -2.140955,-2.140954 a 0.26778874,0.26778874 0 0 0 -0.189135,-0.07906 h -0.126091 -0.278536 z" />
      <path
         id="path4718-0-6-3-5-5"
         style="color:#000000;display:inline;fill:#333333;fill-opacity:1;stroke-width:0.825466;stroke-linecap:round;stroke-linejoin:round;stroke-dasharray:none;filter:url(#filter1019-6-4)"
         d="m 32.944337,13.841244 c -0.123738,4.8e-5 -0.223968,0.100472 -0.223778,0.22421 v 1.731341 c 7.73e-4,0.123058 0.157097,0.28217 0.280158,0.282228 h 1.733411 c 0.199007,-4.52e-4 0.298558,-0.240897 0.158113,-0.381891 l -1.789792,-1.789791 c -0.04185,-0.04213 -0.09873,-0.0659 -0.158112,-0.06609 z"
         sodipodi:nodetypes="ccccccccc" />
      <path
         id="path4718-0-6-6-0"
         style="color:#000000;display:inline;fill:#3f8fc0;fill-opacity:1;stroke-width:0.987425;stroke-linecap:round;stroke-linejoin:round;stroke-dasharray:none"
         d="m 32.988144,13.402283 a 0.26778874,0.26778874 0 0 0 -0.267684,0.2682 v 2.142505 a 0.26781552,0.26781552 0 0 0 0.267684,0.266134 h 2.140954 a 0.26781552,0.26781552 0 0 0 0.189136,-0.45682 l -2.140955,-2.140954 a 0.26778874,0.26778874 0 0 0 -0.189135,-0.07906 z" />
      <path
         id="rect7750-9"
         style="fill:#153b51;fill-opacity:1;stroke:none;stroke-width:0.0793304;stroke-linecap:round;stroke-linejoin:round;stroke-dasharray:none;stroke-opacity:1"
         d="m 60.58659,16.879697 c -0.280106,0 -0.505796,0.225691 -0.505796,0.505796 v 0.09073 h 0.659272 v 0.02459 0.08395 h -0.705908 -0.01315 -0.140335 c -0.280103,0 -0.505793,0.225266 -0.505793,0.505371 v 0.321793 c 0,0.280105 0.22569,0.505794 0.505793,0.505794 h 0.118289 v -0.199269 c 0,-0.280104 0.225266,-0.505795 0.505371,-0.505795 h 0.08225 0.106841 0.200112 c 0.280105,0 0.505795,-0.225268 0.505795,-0.505371 v -0.321792 c 0,-0.280106 -0.22569,-0.505795 -0.505795,-0.505795 z m 0.913653,0.729227 v 0.199266 c 0,0.280104 -0.225268,0.505795 -0.505371,0.505795 h -0.08225 -0.106841 -0.200113 c -0.280104,0 -0.505795,0.225266 -0.505795,0.505371 v 0.321792 c 0,0.280104 0.225691,0.505796 0.505795,0.505796 h 0.306954 c 0.280104,0 0.505795,-0.225692 0.505795,-0.505796 v -0.09073 h -0.659272 v -0.02459 -0.08395 h 0.719051 0.140333 c 0.280107,0 0.505796,-0.225266 0.505796,-0.50537 v -0.321793 c 0,-0.280103 -0.225689,-0.505795 -0.505796,-0.505795 z"
         transform="matrix(1.26349,0,0,1.26349,-44.694411,-4.7058344)" />
    </g>
  </g>
</svg>
