<?xml version="1.0" encoding="UTF-8" standalone="no"?>
<!-- Created with Inkscape (http://www.inkscape.org/) -->

<svg
   width="32"
   height="32"
   viewBox="0 0 8.4666665 8.4666666"
   version="1.1"
   id="svg1908"
   inkscape:version="1.2.1 (9c6d41e410, 2022-07-14)"
   sodipodi:docname="text-x-haskell.svg"
   xmlns:inkscape="http://www.inkscape.org/namespaces/inkscape"
   xmlns:sodipodi="http://sodipodi.sourceforge.net/DTD/sodipodi-0.dtd"
   xmlns="http://www.w3.org/2000/svg"
   xmlns:svg="http://www.w3.org/2000/svg">
  <sodipodi:namedview
     id="namedview1910"
     pagecolor="#ffffff"
     bordercolor="#000000"
     borderopacity="0.25"
     inkscape:showpageshadow="2"
     inkscape:pageopacity="0.0"
     inkscape:pagecheckerboard="0"
     inkscape:deskcolor="#d1d1d1"
     inkscape:document-units="mm"
     showgrid="false"
     inkscape:zoom="7.375"
     inkscape:cx="12.813559"
     inkscape:cy="16"
     inkscape:window-width="1920"
     inkscape:window-height="986"
     inkscape:window-x="-11"
     inkscape:window-y="-11"
     inkscape:window-maximized="1"
     inkscape:current-layer="layer1" />
  <defs
     id="defs1905">
    <filter
       inkscape:collect="always"
       style="color-interpolation-filters:sRGB"
       id="filter1019-6-4-6"
       x="-0.19201652"
       y="-0.19198347"
       width="1.384033"
       height="1.3839669">
      <feGaussianBlur
         inkscape:collect="always"
         stdDeviation="0.17900691"
         id="feGaussianBlur1021-7-7-7" />
    </filter>
  </defs>
  <g
     inkscape:label="Layer 1"
     inkscape:groupmode="layer"
     id="layer1">
    <g
       id="g1026-5-8-5"
       inkscape:label="file-haskell"
       transform="matrix(0.79145874,0,0,0.79145874,-21.142498,-9.9018297)">
      <path
         id="rect1037-2-1-3-4-3"
         style="display:inline;fill:#453a62;fill-opacity:1;stroke:none;stroke-width:0.463867"
         d="m 30.042587,13.402283 c -0.729276,0 -1.316199,0.587566 -1.316199,1.317749 v 6.279203 c 0,0.730182 0.586923,1.317749 1.316199,1.317749 h 4.03903 c 0.729275,0 1.316199,-0.587567 1.316199,-1.317749 v -4.785238 -0.276985 -0.127641 h -0.0021 a 0.26781552,0.26781552 0 0 0 -0.07751,-0.187069 l -2.140955,-2.140954 a 0.26778874,0.26778874 0 0 0 -0.189135,-0.07906 h -0.126091 -0.278536 z" />
      <path
         id="path4718-0-6-3-5-5-5"
         style="color:#000000;display:inline;fill:#1a1a1a;fill-opacity:1;stroke-width:0.825466;stroke-linecap:round;stroke-linejoin:round;stroke-dasharray:none;filter:url(#filter1019-6-4-6)"
         d="m 32.944337,13.841244 c -0.123738,4.8e-5 -0.223968,0.100472 -0.223778,0.22421 v 1.731341 c 7.73e-4,0.123058 0.157097,0.28217 0.280158,0.282228 h 1.733411 c 0.199007,-4.52e-4 0.298558,-0.240897 0.158113,-0.381891 l -1.789792,-1.789791 c -0.04185,-0.04213 -0.09873,-0.0659 -0.158112,-0.06609 z"
         sodipodi:nodetypes="ccccccccc" />
      <path
         id="path4718-0-6-6-0-6"
         style="color:#000000;display:inline;fill:#5e5086;fill-opacity:1;stroke-width:0.987425;stroke-linecap:round;stroke-linejoin:round;stroke-dasharray:none"
         d="m 32.988144,13.402283 a 0.26778874,0.26778874 0 0 0 -0.267684,0.2682 v 2.142505 a 0.26781552,0.26781552 0 0 0 0.267684,0.266134 h 2.140954 a 0.26781552,0.26781552 0 0 0 0.189136,-0.45682 l -2.140955,-2.140954 a 0.26778874,0.26778874 0 0 0 -0.189135,-0.07906 z" />
      <path
         id="circle2350"
         style="fill:#2b2145;fill-opacity:1;stroke-width:0.0340356;stroke-linecap:round;stroke-linejoin:round"
         d="m 53.590648,17.296885 a 0.06174014,0.06174014 0 0 0 -0.03098,0.0083 0.06174014,0.06174014 0 0 0 -0.02265,0.08427 0.06174014,0.06174014 0 0 0 0.0054,0.0077 l 0.60087,0.866336 -0.600869,0.865997 a 0.06174014,0.06174014 0 0 0 -0.0054,0.0077 0.06174014,0.06174014 0 0 0 0.02265,0.08427 0.06174014,0.06174014 0 0 0 0.03098,0.0083 h 0.395696 a 0.06174014,0.06174014 0 0 0 0.05362,-0.03098 l 6.45e-4,-0.0013 a 0.06174014,0.06174014 0 0 0 9.89e-4,-0.0013 l 0.619186,-0.892329 a 0.06174014,0.06174014 0 0 0 0.0066,-0.07128 0.06174014,0.06174014 0 0 0 -0.008,-0.01133 l -0.617792,-0.890597 a 0.06174014,0.06174014 0 0 0 -0.0017,-0.0026 0.06174014,0.06174014 0 0 0 -0.05362,-0.03098 z m 0.670814,0 a 0.06174014,0.06174014 0 0 0 -0.03064,0.0083 0.06174014,0.06174014 0 0 0 -0.02265,0.08427 0.06174014,0.06174014 0 0 0 0.008,0.01133 l 0.598203,0.862664 -0.599204,0.863333 a 0.06174014,0.06174014 0 0 0 -0.007,0.01033 0.06174014,0.06174014 0 0 0 0.02265,0.08427 0.06174014,0.06174014 0 0 0 0.03064,0.0083 h 0.396027 a 0.06174014,0.06174014 0 0 0 0.05362,-0.03098 l 0.376035,-0.542248 0.376377,0.542248 a 0.06174014,0.06174014 0 0 0 0.05396,0.03098 h 0.395361 a 0.06174014,0.06174014 0 0 0 0.03098,-0.0083 0.06174014,0.06174014 0 0 0 0.02265,-0.08427 l -0.005,-0.0073 a 0.06174014,0.06174014 0 0 1 -3.47e-4,-3.29e-4 l -1.249408,-1.800281 a 0.06174014,0.06174014 0 0 0 -6.44e-4,-0.0013 0.06174014,0.06174014 0 0 0 -0.05363,-0.03098 z m 1.069841,0.563898 a 0.06174014,0.06174014 0 0 0 -0.03097,0.0083 0.06174014,0.06174014 0 0 0 -0.02265,0.08427 0.06174014,0.06174014 0 0 0 0.0026,0.004 l 0.146887,0.224494 a 0.06174014,0.06174014 0 0 0 0.05329,0.03098 h 0.808708 a 0.06173808,0.06139508 0 0 0 0.06196,-0.06129 0.06173808,0.06139508 0 0 0 0,-0.0017 v -0.227835 a 0.06173808,0.06139508 0 0 0 -0.06196,-0.06128 h -0.957589 a 0.06174014,0.06174014 0 0 1 -3.32e-4,0 z m 0.343068,0.50128 a 0.06174014,0.06174014 0 0 0 -0.02632,0.0083 0.06174014,0.06174014 0 0 0 -0.02265,0.08427 0.06174014,0.06174014 0 0 0 0.0053,0.0077 l 0.153881,0.221162 a 0.06174014,0.06174014 0 0 0 0.04697,0.03064 v 3.33e-4 h 0.457647 a 0.06173808,0.06139508 0 0 0 0.06196,-0.06129 0.06173808,0.06139508 0 0 0 0,-0.0017 v -0.228164 a 0.06173808,0.06139508 0 0 0 -0.06196,-0.06128 h -0.610191 a 0.06174014,0.06174014 0 0 0 -0.0046,0 z"
         transform="matrix(1.2634897,0,0,1.2634897,-37.353995,-4.7888477)" />
    </g>
  </g>
</svg>
